<svg xmlns="http://www.w3.org/2000/svg" viewBox="0 0 512 512" role="img" aria-label="Wukong IM">
  <rect width="512" height="512" rx="112" fill="#0f766e"/>
  <path fill="#ccfbf1" d="M106 132h300c28 0 50 22 50 50v136c0 28-22 50-50 50H238l-88 68c-16 12-39 1-39-19v-52h-5c-28 0-50-22-50-50V182c0-28 22-50 50-50z"/>
  <path fill="#ffffff" d="M126 189c0-13 11-24 24-24h212c13 0 24 11 24 24s-11 24-24 24H150c-13 0-24-11-24-24zm0 70c0-13 11-24 24-24h162c13 0 24 11 24 24s-11 24-24 24H150c-13 0-24-11-24-24z"/>
  <path fill="#134e4a" d="M356 310c0-18 15-33 33-33s33 15 33 33-15 33-33 33-33-15-33-33z"/>
</svg>
